# xmcd
#
# Track frame offsets:
#	150
#	15924
#	30861
#	48829
#	62934
#	81580
#	98190
#	115924
#	131696
#	149291
#	161546
#	181767
#	200042
#	217647
#	228828
#	245362
#	260721
#
# Disc length: 3629 seconds
#
# Revision: 4
# Processed by: cddbd v1.5.2PL0 Copyright (c) Steve Scherf et al.
# Submitted via: audiograbber 1.83.01
#
DISCID=df0e2b11
DTITLE=Various Artist - CDX 340
DYEAR=2004
DGENRE=Country
TTITLE0=Trent Willmon - Beer man
TTITLE1=Tracy Byrd - How'd I wind up in Jamaica
TTITLE2=Joe Nichols - If nobody believed in you
TTITLE3=Pinkmonkey - Let's kill Saturday night
TTITLE4=Randy Travis - Raise him up
TTITLE5=Gretchen Wilson - Redneck woman
TTITLE6=James Otto - Sunday morning and Saturday night
TTITLE7=Josh Turner - What it ain't
TTITLE8=Brad Paisley and Alison Krauss - Whiskey lullaby
TTITLE9=Brad and Shelly - Don't make me (have to come in there)
TTITLE10=Jeffrey Steele - Good year for the outlaw
TTITLE11=Craig Collins - Just what I need
TTITLE12=Blake Stemper - Hickebilly beat
TTITLE13=Brian Gowan - Just a little bit
TTITLE14=Katy Kiefer - Little man
TTITLE15=Kelly Lang - Single mother
TTITLE16=Ricky Hendrix - Tongue and cheek
EXTD=
EXTT0=
EXTT1=
EXTT2=
EXTT3=
EXTT4=
EXTT5=
EXTT6=
EXTT7=
EXTT8=
EXTT9=
EXTT10=
EXTT11=
EXTT12=
EXTT13=
EXTT14=
EXTT15=
EXTT16=
PLAYORDER=
